<svg xmlns="http://www.w3.org/2000/svg" viewBox="0 0 1200 630" fill="none">
  <defs>
    <linearGradient id="logic-web-og-bg" x1="0" y1="0" x2="1200" y2="630" gradientUnits="userSpaceOnUse">
      <stop offset="0%" stop-color="#0A0D14" />
      <stop offset="58%" stop-color="#131829" />
      <stop offset="100%" stop-color="#1A2240" />
    </linearGradient>
    <radialGradient id="logic-web-og-glow" cx="0" cy="0" r="1" gradientUnits="userSpaceOnUse" gradientTransform="translate(970 180) rotate(128.493) scale(287.279 344.611)">
      <stop stop-color="#5B8AF5" stop-opacity="0.32" />
      <stop offset="0.55" stop-color="#5B8AF5" stop-opacity="0.08" />
      <stop offset="1" stop-color="#5B8AF5" stop-opacity="0" />
    </radialGradient>
    <linearGradient id="logic-web-og-grid" x1="787" y1="77" x2="1082" y2="391" gradientUnits="userSpaceOnUse">
      <stop stop-color="#7EAAFE" stop-opacity="0.3" />
      <stop offset="1" stop-color="#7EAAFE" stop-opacity="0.02" />
    </linearGradient>
  </defs>
  <rect width="1200" height="630" fill="url(#logic-web-og-bg)" />
  <circle cx="968" cy="182" r="206" fill="url(#logic-web-og-glow)" />
  <circle cx="1028" cy="484" r="132" fill="#5B8AF5" fill-opacity="0.08" />
  <path d="M801 88H1122" stroke="url(#logic-web-og-grid)" stroke-width="1" />
  <path d="M801 150H1122" stroke="url(#logic-web-og-grid)" stroke-width="1" />
  <path d="M801 212H1122" stroke="url(#logic-web-og-grid)" stroke-width="1" />
  <path d="M801 274H1122" stroke="url(#logic-web-og-grid)" stroke-width="1" />
  <path d="M801 336H1122" stroke="url(#logic-web-og-grid)" stroke-width="1" />
  <path d="M861 58V392" stroke="url(#logic-web-og-grid)" stroke-width="1" />
  <path d="M942 58V392" stroke="url(#logic-web-og-grid)" stroke-width="1" />
  <path d="M1023 58V392" stroke="url(#logic-web-og-grid)" stroke-width="1" />
  <path d="M1104 58V392" stroke="url(#logic-web-og-grid)" stroke-width="1" />

  <text x="96" y="116" font-family="'DM Sans', sans-serif" font-size="24" font-weight="600" letter-spacing="7" fill="#7EAAFE">LE HAVRE · NORMANDIE</text>
  <text x="96" y="268" font-family="'Space Grotesk', sans-serif" font-size="112" font-weight="700" letter-spacing="-5" fill="#F0F2F7">logic</text>
  <text x="100" y="321" font-family="'Space Grotesk', sans-serif" font-size="24" font-weight="300" letter-spacing="15" fill="#5B8AF5">WEB</text>
  <text x="96" y="404" font-family="'DM Sans', sans-serif" font-size="42" font-weight="500" fill="#F0F2F7" fill-opacity="0.92">Sites web, logiciels sur mesure, support IT</text>
  <text x="96" y="458" font-family="'DM Sans', sans-serif" font-size="42" font-weight="500" fill="#F0F2F7" fill-opacity="0.92">et formation pour les entreprises locales.</text>
  <rect x="96" y="509" width="360" height="58" rx="29" fill="#2B5BE8" />
  <text x="130" y="547" font-family="'DM Sans', sans-serif" font-size="24" font-weight="700" fill="#F0F2F7">logic-web.net</text>

  <g transform="translate(818 98)">
    <circle cx="144" cy="144" r="112" stroke="rgba(91,138,245,0.18)" stroke-width="4" />
    <path d="M72 208 L72 112 L112 112" stroke="#5B8AF5" stroke-width="10" stroke-linecap="round" stroke-linejoin="round" />
    <path d="M112 112 L144 176 L176 112" stroke="#7EAAFE" stroke-width="10" stroke-linecap="round" stroke-linejoin="round" />
    <path d="M176 112 L216 112 L216 208" stroke="#5B8AF5" stroke-width="10" stroke-linecap="round" stroke-linejoin="round" />
    <circle cx="72" cy="112" r="12" fill="#5B8AF5" />
    <circle cx="144" cy="176" r="14" fill="#7EAAFE" />
    <circle cx="216" cy="112" r="12" fill="#5B8AF5" />
    <circle cx="72" cy="208" r="8" fill="rgba(91,138,245,0.42)" />
    <circle cx="216" cy="208" r="8" fill="rgba(91,138,245,0.42)" />
  </g>
</svg>
